<svg id="Layer_1" data-name="Layer 1" xmlns="http://www.w3.org/2000/svg" viewBox="0 0 104.57 81.82"><defs><style>.cls-1{fill:#fff;}.cls-2{fill:#002d62;}.cls-3{fill:#e31837;}</style></defs><title>W_Capitals_secondary_white</title><path class="cls-1" d="M103,25.67a52.6,52.6,0,0,0-.48-7,14.39,14.39,0,0,0,2.05-7.91c0-7.06-3-10.42-3.45-10.81-.76,2.08-2.24,6.24-4,8.23C90.91,15.3,84.8,18.57,79.35,21.37c-8.95,4.61-14.28,7.92-18,22.49l0-.1a.73.73,0,0,0,0,.1l-2.6-5.91a9,9,0,0,1,1.86,1.74,10.57,10.57,0,0,0,2.22-5.85A4.71,4.71,0,0,0,62,31.15a5.05,5.05,0,0,0-3.16-2c-1.12-1.13-2.28-2.37-6.73-2.58-3.14-.15-6.61,1.23-7.22,4.62L42.69,42.75c-3-13.84-8-16.4-17.47-21.38C19.79,18.52,13.66,15.3,7.45,8.23c-1.76-2-3.24-6.15-4-8.23C3,.4,0,3.75,0,10.81a14.4,14.4,0,0,0,2,7.91,52.53,52.53,0,0,0-.48,7A18.59,18.59,0,0,0,6.84,38.76a29.37,29.37,0,0,0,0,4.17c.34,4.8,3.9,9.57,7.94,13.43a64.5,64.5,0,0,0,9.85,7.59c1.18.74,3,1.92,3.85,2.64,4.6,3.73,11,14.53,11.45,15.24,0-2.25.54-4.38,2.22-5,.21-2.2,2.13-10.09,8.11-11.39,0-1.07,0-1.26,1.09-2,0,0,.67-5.75.94-9.19.28,3.44.94,9.19.94,9.19,1.05.7,1.09.89,1.09,2,6,1.3,7.8,9.2,8,11.39,1.68.61,2.2,2.74,2.22,5,.41-.71,6.85-11.51,11.45-15.24.89-.72,2.67-1.9,3.85-2.64a64.47,64.47,0,0,0,9.85-7.59c4-3.86,7.6-8.63,7.93-13.43a28.91,28.91,0,0,0,0-4.17A18.59,18.59,0,0,0,103,25.67Z"/><path class="cls-2" d="M52.28,50.37s2.11,11.76,2.18,12.26a2.74,2.74,0,0,1,1.1,1.68C60.41,65.89,63,72,63.61,75.83a4.45,4.45,0,0,1,1.88,2.56s5.61-9.86,10-13c1.37-1,3.14-2.42,5.37-3.89,4.83-3.17,15.69-10.31,15.86-20.88a16.62,16.62,0,0,0-.14-2.31c3.54-5,5-8.71,5.12-13.22a34.94,34.94,0,0,0-.43-5.25c-.19.5-.38,1-.63,1.5-.84,1.83-3.78,5.13-9.51,9.17,5.27-4.65,11.64-12,11.81-20.23.06-2.83-.63-4.68-1.41-7.48,0,0-1.67,9.81-18.89,18.74C77.08,24.44,72,27.43,68.78,30.66c-3,3-5,7.74-7.23,16.2-1.36-3.23-3.72-8.9-4.11-9.81l.37-.19c.16,0,.82-.48,2.39,1.05A8,8,0,0,0,61.62,34a3.63,3.63,0,0,0-3.39-3.75c-.49-.69-1.84-1.93-6.16-1.94-.51,0-5-.07-5.54,3.32,0,.26-3.67,14.61-3.67,14.61-3-8.46-4.1-12.63-7.08-15.6-3.23-3.23-8.3-6.22-13.87-9.11C4.7,12.62,3,2.8,3,2.8c-.78,2.8-1.47,4.65-1.41,7.48.17,8.22,6.55,15.57,11.81,20.23-5.73-4-8.67-7.34-9.51-9.17-.25-.54-.44-1-.63-1.5a34.9,34.9,0,0,0-.43,5.25C3,29.6,4.45,33.28,8,38.31a16.61,16.61,0,0,0-.14,2.31C8,51.19,18.86,58.33,23.7,61.5c2.23,1.46,4,2.91,5.37,3.89,4.4,3.14,10,13,10,13A4.45,4.45,0,0,1,41,75.83C41.54,72,44.16,65.89,49,64.31a2.74,2.74,0,0,1,1.1-1.68C50.17,62.13,52.28,50.37,52.28,50.37Z"/><path class="cls-1" d="M43.06,52.14,51.89,39,61.8,51.84,55.54,36.31l1.89-.94c.48-.1,1-.3,2.39.71.81-2.92.14-4.3-2.58-4.37,0-1.23-2.42-1.59-2.58-1.64A19.7,19.7,0,0,0,52,29.87s-3.7-.12-4,2Z"/><path class="cls-2" d="M53.23,32.3A1.08,1.08,0,0,0,54,33a1.52,1.52,0,0,0,1.32-.47,7.61,7.61,0,0,0-4.27-.65c.6.06,2.13.47,2.13.47"/><path class="cls-3" d="M17.14,31.06,11.25,16.62C7.34,13.95,4.3,11.13,3.06,8,3.38,18.42,10,25.56,17.14,31.06Zm-1.23,0,1.53,3.77c-6-3.47-11.51-7.15-13.21-11.38.41,13.34,12.22,20.94,20.57,26.7l-5-12.35c8.92,5,17.91,9.8,21.32,14.89a43.54,43.54,0,0,0-5.63-7.17C31.26,41.33,23.44,36.86,15.91,31Zm9.72,21.1c-6.56-3.63-14.49-7.31-16.4-11.86.24,7,4.67,11.76,9.45,15.53s10.1,6.54,11.92,8.55l-3.5-8.6a67.12,67.12,0,0,1,10.74,7.42C37,62.14,31.26,55.26,25.63,52.14Z"/><path class="cls-3" d="M101.51,8c-1.24,3.1-4.28,5.92-8.19,8.59L87.43,31.06C94.54,25.56,101.19,18.42,101.51,8ZM69.11,45.49a43.58,43.58,0,0,0-5.63,7.17c3.41-5.09,12.4-9.87,21.32-14.89l-5,12.35c8.35-5.76,20.15-13.36,20.57-26.7-1.7,4.23-7.21,7.91-13.21,11.38L88.66,31C81.12,36.86,73.3,41.33,69.11,45.49Zm-2.38,17.7a67.14,67.14,0,0,1,10.74-7.42L74,64.36c1.82-2,7.08-4.73,11.92-8.55s9.21-8.51,9.45-15.53c-1.91,4.55-9.84,8.22-16.4,11.86C73.3,55.26,67.61,62.14,66.73,63.18Z"/></svg>